<mxfile host="app.diagrams.net" modified="2021-10-09T02:08:02.982Z" agent="5.0 (Windows NT 10.0; Win64; x64) AppleWebKit/537.36 (KHTML, like Gecko) Chrome/94.0.4606.61 Safari/537.36" etag="usnqe0mgp9KDcyv_7m3b" version="15.3.8" type="github">
  <diagram id="Bvgh9ke2x4KUjIlUmDfH" name="Page-1">
    <mxGraphModel dx="2031" dy="1089" grid="1" gridSize="10" guides="1" tooltips="1" connect="1" arrows="1" fold="1" page="1" pageScale="1" pageWidth="1200" pageHeight="1920" math="0" shadow="0">
      <root>
        <mxCell id="0" />
        <mxCell id="1" parent="0" />
        <mxCell id="mvn-bpTAucvhbGxsHT3W-80" value="" style="rounded=1;whiteSpace=wrap;html=1;dashed=1;fillColor=#fff2cc;strokeColor=#d6b656;" vertex="1" parent="1">
          <mxGeometry x="10.75" y="830" width="110" height="250" as="geometry" />
        </mxCell>
        <mxCell id="mvn-bpTAucvhbGxsHT3W-79" value="" style="rounded=1;whiteSpace=wrap;html=1;dashed=1;fillColor=#fff2cc;strokeColor=#d6b656;" vertex="1" parent="1">
          <mxGeometry x="454.75" y="828" width="110" height="250" as="geometry" />
        </mxCell>
        <mxCell id="mvn-bpTAucvhbGxsHT3W-78" value="" style="rounded=1;whiteSpace=wrap;html=1;dashed=1;fillColor=#fff2cc;strokeColor=#d6b656;" vertex="1" parent="1">
          <mxGeometry x="878.75" y="833" width="110" height="250" as="geometry" />
        </mxCell>
        <mxCell id="mvn-bpTAucvhbGxsHT3W-22" value="" style="rounded=1;whiteSpace=wrap;html=1;dashed=1;fillColor=#f5f5f5;strokeColor=#666666;fontColor=#333333;" vertex="1" parent="1">
          <mxGeometry x="330.25" y="1001" width="115" height="56" as="geometry" />
        </mxCell>
        <mxCell id="mvn-bpTAucvhbGxsHT3W-21" value="" style="rounded=1;whiteSpace=wrap;html=1;dashed=1;fillColor=#f5f5f5;strokeColor=#666666;fontColor=#333333;" vertex="1" parent="1">
          <mxGeometry x="330.25" y="861" width="115" height="56" as="geometry" />
        </mxCell>
        <mxCell id="mvn-bpTAucvhbGxsHT3W-14" value="" style="rounded=1;whiteSpace=wrap;html=1;fillColor=#dae8fc;strokeColor=#6c8ebf;dashed=1;" vertex="1" parent="1">
          <mxGeometry x="185.25" y="818" width="135" height="280" as="geometry" />
        </mxCell>
        <mxCell id="mvn-bpTAucvhbGxsHT3W-2" value="Source" style="ellipse;whiteSpace=wrap;html=1;aspect=fixed;fillColor=#ffe6cc;strokeColor=#d79b00;" vertex="1" parent="1">
          <mxGeometry x="21.75" y="258" width="80" height="80" as="geometry" />
        </mxCell>
        <mxCell id="mvn-bpTAucvhbGxsHT3W-3" value="JobVertex" style="text;html=1;strokeColor=none;fillColor=none;align=center;verticalAlign=middle;whiteSpace=wrap;rounded=0;" vertex="1" parent="1">
          <mxGeometry x="21.75" y="238" width="80" height="20" as="geometry" />
        </mxCell>
        <mxCell id="mvn-bpTAucvhbGxsHT3W-4" value="parallelism = 1" style="text;html=1;strokeColor=none;fillColor=none;align=center;verticalAlign=middle;whiteSpace=wrap;rounded=0;" vertex="1" parent="1">
          <mxGeometry x="21.75" y="338" width="80" height="20" as="geometry" />
        </mxCell>
        <mxCell id="mvn-bpTAucvhbGxsHT3W-5" value="JobEdge" style="rounded=0;whiteSpace=wrap;html=1;fillColor=#f5f5f5;strokeColor=#666666;fontColor=#333333;" vertex="1" parent="1">
          <mxGeometry x="342.25" y="283" width="90" height="30" as="geometry" />
        </mxCell>
        <mxCell id="mvn-bpTAucvhbGxsHT3W-6" value="Flat Map" style="ellipse;whiteSpace=wrap;html=1;aspect=fixed;fillColor=#ffe6cc;strokeColor=#d79b00;" vertex="1" parent="1">
          <mxGeometry x="469.25" y="258" width="80" height="80" as="geometry" />
        </mxCell>
        <mxCell id="mvn-bpTAucvhbGxsHT3W-7" value="Keyed&lt;br&gt;Aggregation&lt;br&gt;&amp;gt;&amp;gt;&amp;gt;&lt;br&gt;Sink" style="ellipse;whiteSpace=wrap;html=1;aspect=fixed;fillColor=#ffe6cc;strokeColor=#d79b00;" vertex="1" parent="1">
          <mxGeometry x="890" y="258" width="80" height="80" as="geometry" />
        </mxCell>
        <mxCell id="mvn-bpTAucvhbGxsHT3W-8" value="JobEdge" style="rounded=0;whiteSpace=wrap;html=1;fillColor=#f5f5f5;strokeColor=#666666;fontColor=#333333;" vertex="1" parent="1">
          <mxGeometry x="763.25" y="283" width="90" height="30" as="geometry" />
        </mxCell>
        <mxCell id="mvn-bpTAucvhbGxsHT3W-11" value="Source&lt;br&gt;(1/1)" style="ellipse;whiteSpace=wrap;html=1;aspect=fixed;fillColor=#ffe6cc;strokeColor=#d79b00;" vertex="1" parent="1">
          <mxGeometry x="25.75" y="921" width="80" height="80" as="geometry" />
        </mxCell>
        <mxCell id="mvn-bpTAucvhbGxsHT3W-12" value="ResultSubPartition" style="rounded=0;whiteSpace=wrap;html=1;fillColor=#1ba1e2;strokeColor=#006EAF;fontColor=#ffffff;" vertex="1" parent="1">
          <mxGeometry x="192.75" y="1014" width="120" height="30" as="geometry" />
        </mxCell>
        <mxCell id="mvn-bpTAucvhbGxsHT3W-13" value="ResultSubPartition" style="rounded=0;whiteSpace=wrap;html=1;fillColor=#1ba1e2;strokeColor=#006EAF;fontColor=#ffffff;" vertex="1" parent="1">
          <mxGeometry x="192.75" y="874" width="120" height="30" as="geometry" />
        </mxCell>
        <mxCell id="mvn-bpTAucvhbGxsHT3W-16" value="" style="endArrow=classic;html=1;exitX=1;exitY=0.5;exitDx=0;exitDy=0;entryX=0;entryY=0.5;entryDx=0;entryDy=0;" edge="1" parent="1" source="mvn-bpTAucvhbGxsHT3W-11" target="mvn-bpTAucvhbGxsHT3W-12">
          <mxGeometry width="50" height="50" relative="1" as="geometry">
            <mxPoint x="132.75" y="1088" as="sourcePoint" />
            <mxPoint x="182.75" y="1038" as="targetPoint" />
          </mxGeometry>
        </mxCell>
        <mxCell id="mvn-bpTAucvhbGxsHT3W-17" value="" style="endArrow=classic;html=1;entryX=0;entryY=0.5;entryDx=0;entryDy=0;strokeWidth=1;exitX=1;exitY=0.5;exitDx=0;exitDy=0;" edge="1" parent="1" source="mvn-bpTAucvhbGxsHT3W-11" target="mvn-bpTAucvhbGxsHT3W-13">
          <mxGeometry width="50" height="50" relative="1" as="geometry">
            <mxPoint x="142.75" y="958" as="sourcePoint" />
            <mxPoint x="202.75" y="1009" as="targetPoint" />
          </mxGeometry>
        </mxCell>
        <mxCell id="mvn-bpTAucvhbGxsHT3W-18" value="InputChannel" style="rounded=0;whiteSpace=wrap;html=1;fillColor=#CCCCCC;strokeColor=#666666;fontColor=#333333;" vertex="1" parent="1">
          <mxGeometry x="342.75" y="874" width="90" height="30" as="geometry" />
        </mxCell>
        <mxCell id="mvn-bpTAucvhbGxsHT3W-19" value="ResultPartition" style="text;html=1;strokeColor=none;fillColor=none;align=center;verticalAlign=middle;whiteSpace=wrap;rounded=0;dashed=1;" vertex="1" parent="1">
          <mxGeometry x="202.75" y="798" width="100" height="20" as="geometry" />
        </mxCell>
        <mxCell id="mvn-bpTAucvhbGxsHT3W-20" value="InputChannel" style="rounded=0;whiteSpace=wrap;html=1;fillColor=#CCCCCC;strokeColor=#666666;fontColor=#333333;" vertex="1" parent="1">
          <mxGeometry x="342.75" y="1014" width="90" height="30" as="geometry" />
        </mxCell>
        <mxCell id="mvn-bpTAucvhbGxsHT3W-23" value="InputGate" style="text;html=1;strokeColor=none;fillColor=none;align=center;verticalAlign=middle;whiteSpace=wrap;rounded=0;dashed=1;" vertex="1" parent="1">
          <mxGeometry x="337.75" y="841" width="100" height="20" as="geometry" />
        </mxCell>
        <mxCell id="mvn-bpTAucvhbGxsHT3W-24" value="InputGate" style="text;html=1;strokeColor=none;fillColor=none;align=center;verticalAlign=middle;whiteSpace=wrap;rounded=0;dashed=1;" vertex="1" parent="1">
          <mxGeometry x="337.75" y="981" width="100" height="20" as="geometry" />
        </mxCell>
        <mxCell id="mvn-bpTAucvhbGxsHT3W-25" value="Task" style="text;html=1;strokeColor=none;fillColor=none;align=center;verticalAlign=middle;whiteSpace=wrap;rounded=0;dashed=1;" vertex="1" parent="1">
          <mxGeometry x="35.75" y="899" width="60" height="20" as="geometry" />
        </mxCell>
        <mxCell id="mvn-bpTAucvhbGxsHT3W-26" value="Flat Map&lt;br&gt;(1/2)" style="ellipse;whiteSpace=wrap;html=1;aspect=fixed;fillColor=#ffe6cc;strokeColor=#d79b00;" vertex="1" parent="1">
          <mxGeometry x="469.75" y="848" width="80" height="80" as="geometry" />
        </mxCell>
        <mxCell id="mvn-bpTAucvhbGxsHT3W-27" value="Flat Map&lt;br&gt;(2/2)" style="ellipse;whiteSpace=wrap;html=1;aspect=fixed;fillColor=#ffe6cc;strokeColor=#d79b00;" vertex="1" parent="1">
          <mxGeometry x="469.75" y="989" width="80" height="80" as="geometry" />
        </mxCell>
        <mxCell id="mvn-bpTAucvhbGxsHT3W-28" value="" style="rounded=1;whiteSpace=wrap;html=1;fillColor=#dae8fc;strokeColor=#6c8ebf;dashed=1;" vertex="1" parent="1">
          <mxGeometry x="600.75" y="838" width="135" height="100" as="geometry" />
        </mxCell>
        <mxCell id="mvn-bpTAucvhbGxsHT3W-29" value="ResultSubPartition" style="rounded=0;whiteSpace=wrap;html=1;fillColor=#1ba1e2;strokeColor=#006EAF;fontColor=#ffffff;" vertex="1" parent="1">
          <mxGeometry x="608.25" y="893" width="120" height="30" as="geometry" />
        </mxCell>
        <mxCell id="mvn-bpTAucvhbGxsHT3W-30" value="ResultSubPartition" style="rounded=0;whiteSpace=wrap;html=1;fillColor=#1ba1e2;strokeColor=#006EAF;fontColor=#ffffff;" vertex="1" parent="1">
          <mxGeometry x="608.25" y="852" width="120" height="30" as="geometry" />
        </mxCell>
        <mxCell id="mvn-bpTAucvhbGxsHT3W-31" value="" style="endArrow=classic;html=1;exitX=1;exitY=0.5;exitDx=0;exitDy=0;entryX=0;entryY=0.5;entryDx=0;entryDy=0;" edge="1" parent="1" target="mvn-bpTAucvhbGxsHT3W-29" source="mvn-bpTAucvhbGxsHT3W-26">
          <mxGeometry width="50" height="50" relative="1" as="geometry">
            <mxPoint x="579.75" y="913" as="sourcePoint" />
            <mxPoint x="619.75" y="993" as="targetPoint" />
          </mxGeometry>
        </mxCell>
        <mxCell id="mvn-bpTAucvhbGxsHT3W-32" value="" style="endArrow=classic;html=1;exitX=1;exitY=0.5;exitDx=0;exitDy=0;entryX=0;entryY=0.5;entryDx=0;entryDy=0;strokeWidth=1;" edge="1" parent="1" target="mvn-bpTAucvhbGxsHT3W-30" source="mvn-bpTAucvhbGxsHT3W-26">
          <mxGeometry width="50" height="50" relative="1" as="geometry">
            <mxPoint x="579.75" y="913" as="sourcePoint" />
            <mxPoint x="639.75" y="978" as="targetPoint" />
          </mxGeometry>
        </mxCell>
        <mxCell id="mvn-bpTAucvhbGxsHT3W-33" value="ResultPartition" style="text;html=1;strokeColor=none;fillColor=none;align=center;verticalAlign=middle;whiteSpace=wrap;rounded=0;dashed=1;" vertex="1" parent="1">
          <mxGeometry x="682.75" y="388" width="100" height="20" as="geometry" />
        </mxCell>
        <mxCell id="mvn-bpTAucvhbGxsHT3W-39" value="" style="rounded=1;whiteSpace=wrap;html=1;fillColor=#dae8fc;strokeColor=#6c8ebf;dashed=1;" vertex="1" parent="1">
          <mxGeometry x="600.75" y="980" width="135" height="100" as="geometry" />
        </mxCell>
        <mxCell id="mvn-bpTAucvhbGxsHT3W-40" value="ResultSubPartition" style="rounded=0;whiteSpace=wrap;html=1;fillColor=#1ba1e2;strokeColor=#006EAF;fontColor=#ffffff;" vertex="1" parent="1">
          <mxGeometry x="608.25" y="1035" width="120" height="30" as="geometry" />
        </mxCell>
        <mxCell id="mvn-bpTAucvhbGxsHT3W-41" value="ResultSubPartition" style="rounded=0;whiteSpace=wrap;html=1;fillColor=#1ba1e2;strokeColor=#006EAF;fontColor=#ffffff;" vertex="1" parent="1">
          <mxGeometry x="608.25" y="994" width="120" height="30" as="geometry" />
        </mxCell>
        <mxCell id="mvn-bpTAucvhbGxsHT3W-42" value="" style="endArrow=classic;html=1;exitX=1;exitY=0.5;exitDx=0;exitDy=0;entryX=0;entryY=0.5;entryDx=0;entryDy=0;" edge="1" parent="1" target="mvn-bpTAucvhbGxsHT3W-40" source="mvn-bpTAucvhbGxsHT3W-27">
          <mxGeometry width="50" height="50" relative="1" as="geometry">
            <mxPoint x="549.75" y="1030" as="sourcePoint" />
            <mxPoint x="619.75" y="1135" as="targetPoint" />
          </mxGeometry>
        </mxCell>
        <mxCell id="mvn-bpTAucvhbGxsHT3W-43" value="" style="endArrow=classic;html=1;exitX=1;exitY=0.5;exitDx=0;exitDy=0;entryX=0;entryY=0.5;entryDx=0;entryDy=0;strokeWidth=1;" edge="1" parent="1" target="mvn-bpTAucvhbGxsHT3W-41" source="mvn-bpTAucvhbGxsHT3W-27">
          <mxGeometry width="50" height="50" relative="1" as="geometry">
            <mxPoint x="549.75" y="1030" as="sourcePoint" />
            <mxPoint x="639.75" y="1120" as="targetPoint" />
          </mxGeometry>
        </mxCell>
        <mxCell id="mvn-bpTAucvhbGxsHT3W-44" value="" style="endArrow=classic;html=1;exitX=1;exitY=0.5;exitDx=0;exitDy=0;entryX=0;entryY=0.5;entryDx=0;entryDy=0;strokeWidth=1;" edge="1" parent="1" source="mvn-bpTAucvhbGxsHT3W-13" target="mvn-bpTAucvhbGxsHT3W-18">
          <mxGeometry width="50" height="50" relative="1" as="geometry">
            <mxPoint x="132.75" y="954" as="sourcePoint" />
            <mxPoint x="182.75" y="899" as="targetPoint" />
          </mxGeometry>
        </mxCell>
        <mxCell id="mvn-bpTAucvhbGxsHT3W-45" value="" style="endArrow=classic;html=1;entryX=0;entryY=0.5;entryDx=0;entryDy=0;strokeWidth=1;" edge="1" parent="1" target="mvn-bpTAucvhbGxsHT3W-26">
          <mxGeometry width="50" height="50" relative="1" as="geometry">
            <mxPoint x="426.75" y="888" as="sourcePoint" />
            <mxPoint x="346.75" y="899" as="targetPoint" />
          </mxGeometry>
        </mxCell>
        <mxCell id="mvn-bpTAucvhbGxsHT3W-46" value="" style="endArrow=classic;html=1;exitX=1;exitY=0.5;exitDx=0;exitDy=0;entryX=0;entryY=0.5;entryDx=0;entryDy=0;strokeWidth=1;" edge="1" parent="1" source="mvn-bpTAucvhbGxsHT3W-12" target="mvn-bpTAucvhbGxsHT3W-20">
          <mxGeometry width="50" height="50" relative="1" as="geometry">
            <mxPoint x="302.75" y="929" as="sourcePoint" />
            <mxPoint x="372.75" y="929" as="targetPoint" />
          </mxGeometry>
        </mxCell>
        <mxCell id="mvn-bpTAucvhbGxsHT3W-47" value="" style="endArrow=classic;html=1;strokeWidth=1;exitX=1;exitY=0.5;exitDx=0;exitDy=0;entryX=0;entryY=0.5;entryDx=0;entryDy=0;" edge="1" parent="1" target="mvn-bpTAucvhbGxsHT3W-27">
          <mxGeometry width="50" height="50" relative="1" as="geometry">
            <mxPoint x="426.75" y="1029" as="sourcePoint" />
            <mxPoint x="486.75" y="1029" as="targetPoint" />
          </mxGeometry>
        </mxCell>
        <mxCell id="mvn-bpTAucvhbGxsHT3W-48" value="Task" style="text;html=1;strokeColor=none;fillColor=none;align=center;verticalAlign=middle;whiteSpace=wrap;rounded=0;dashed=1;" vertex="1" parent="1">
          <mxGeometry x="479.75" y="828" width="60" height="20" as="geometry" />
        </mxCell>
        <mxCell id="mvn-bpTAucvhbGxsHT3W-49" value="Task" style="text;html=1;strokeColor=none;fillColor=none;align=center;verticalAlign=middle;whiteSpace=wrap;rounded=0;dashed=1;" vertex="1" parent="1">
          <mxGeometry x="479.75" y="968" width="60" height="20" as="geometry" />
        </mxCell>
        <mxCell id="mvn-bpTAucvhbGxsHT3W-50" value="ResultPartition" style="text;html=1;strokeColor=none;fillColor=none;align=center;verticalAlign=middle;whiteSpace=wrap;rounded=0;dashed=1;" vertex="1" parent="1">
          <mxGeometry x="618.25" y="818" width="100" height="20" as="geometry" />
        </mxCell>
        <mxCell id="mvn-bpTAucvhbGxsHT3W-51" value="ResultPartition" style="text;html=1;strokeColor=none;fillColor=none;align=center;verticalAlign=middle;whiteSpace=wrap;rounded=0;dashed=1;" vertex="1" parent="1">
          <mxGeometry x="618.25" y="960" width="100" height="20" as="geometry" />
        </mxCell>
        <mxCell id="mvn-bpTAucvhbGxsHT3W-52" value="" style="rounded=1;whiteSpace=wrap;html=1;dashed=1;fillColor=#f5f5f5;strokeColor=#666666;fontColor=#333333;" vertex="1" parent="1">
          <mxGeometry x="750.75" y="838" width="115" height="100" as="geometry" />
        </mxCell>
        <mxCell id="mvn-bpTAucvhbGxsHT3W-53" value="InputChannel" style="rounded=0;whiteSpace=wrap;html=1;fillColor=#CCCCCC;strokeColor=#666666;fontColor=#333333;" vertex="1" parent="1">
          <mxGeometry x="763.25" y="852" width="90" height="30" as="geometry" />
        </mxCell>
        <mxCell id="mvn-bpTAucvhbGxsHT3W-54" value="InputGate" style="text;html=1;strokeColor=none;fillColor=none;align=center;verticalAlign=middle;whiteSpace=wrap;rounded=0;dashed=1;" vertex="1" parent="1">
          <mxGeometry x="758.25" y="818" width="100" height="20" as="geometry" />
        </mxCell>
        <mxCell id="mvn-bpTAucvhbGxsHT3W-55" value="InputChannel" style="rounded=0;whiteSpace=wrap;html=1;fillColor=#CCCCCC;strokeColor=#666666;fontColor=#333333;" vertex="1" parent="1">
          <mxGeometry x="763.25" y="893" width="90" height="30" as="geometry" />
        </mxCell>
        <mxCell id="mvn-bpTAucvhbGxsHT3W-56" value="" style="rounded=1;whiteSpace=wrap;html=1;dashed=1;fillColor=#f5f5f5;strokeColor=#666666;fontColor=#333333;" vertex="1" parent="1">
          <mxGeometry x="750.75" y="980" width="115" height="100" as="geometry" />
        </mxCell>
        <mxCell id="mvn-bpTAucvhbGxsHT3W-57" value="InputChannel" style="rounded=0;whiteSpace=wrap;html=1;fillColor=#CCCCCC;strokeColor=#666666;fontColor=#333333;" vertex="1" parent="1">
          <mxGeometry x="763.25" y="994" width="90" height="30" as="geometry" />
        </mxCell>
        <mxCell id="mvn-bpTAucvhbGxsHT3W-58" value="InputGate" style="text;html=1;strokeColor=none;fillColor=none;align=center;verticalAlign=middle;whiteSpace=wrap;rounded=0;dashed=1;" vertex="1" parent="1">
          <mxGeometry x="758.25" y="960" width="100" height="20" as="geometry" />
        </mxCell>
        <mxCell id="mvn-bpTAucvhbGxsHT3W-59" value="InputChannel" style="rounded=0;whiteSpace=wrap;html=1;fillColor=#CCCCCC;strokeColor=#666666;fontColor=#333333;" vertex="1" parent="1">
          <mxGeometry x="763.25" y="1035" width="90" height="30" as="geometry" />
        </mxCell>
        <mxCell id="mvn-bpTAucvhbGxsHT3W-61" value="&lt;font style=&quot;font-size: 11px&quot;&gt;Keyed&lt;br&gt;Aggregation&lt;br&gt;&amp;gt;&amp;gt;&amp;gt;&lt;br&gt;Sink&lt;br&gt;(2/2)&lt;/font&gt;" style="ellipse;whiteSpace=wrap;html=1;aspect=fixed;fillColor=#ffe6cc;strokeColor=#d79b00;" vertex="1" parent="1">
          <mxGeometry x="893.75" y="988" width="80" height="80" as="geometry" />
        </mxCell>
        <mxCell id="mvn-bpTAucvhbGxsHT3W-62" value="&lt;font style=&quot;font-size: 11px&quot;&gt;Keyed&lt;br&gt;Aggregation&lt;br&gt;&amp;gt;&amp;gt;&amp;gt;&lt;br&gt;Sink&lt;br&gt;(1/2)&lt;/font&gt;" style="ellipse;whiteSpace=wrap;html=1;aspect=fixed;fillColor=#ffe6cc;strokeColor=#d79b00;" vertex="1" parent="1">
          <mxGeometry x="893.75" y="843" width="80" height="80" as="geometry" />
        </mxCell>
        <mxCell id="mvn-bpTAucvhbGxsHT3W-63" value="" style="endArrow=classic;html=1;exitX=1;exitY=0.5;exitDx=0;exitDy=0;entryX=0;entryY=0.5;entryDx=0;entryDy=0;strokeWidth=1;" edge="1" parent="1" source="mvn-bpTAucvhbGxsHT3W-30" target="mvn-bpTAucvhbGxsHT3W-53">
          <mxGeometry width="50" height="50" relative="1" as="geometry">
            <mxPoint x="545.7499999999968" y="898" as="sourcePoint" />
            <mxPoint x="618.25" y="877" as="targetPoint" />
          </mxGeometry>
        </mxCell>
        <mxCell id="mvn-bpTAucvhbGxsHT3W-64" value="" style="endArrow=classic;html=1;exitX=1;exitY=0.5;exitDx=0;exitDy=0;entryX=0;entryY=0.5;entryDx=0;entryDy=0;strokeWidth=1;" edge="1" parent="1" source="mvn-bpTAucvhbGxsHT3W-29" target="mvn-bpTAucvhbGxsHT3W-57">
          <mxGeometry width="50" height="50" relative="1" as="geometry">
            <mxPoint x="738.25" y="877" as="sourcePoint" />
            <mxPoint x="798.25" y="877" as="targetPoint" />
          </mxGeometry>
        </mxCell>
        <mxCell id="mvn-bpTAucvhbGxsHT3W-65" value="" style="endArrow=classic;html=1;exitX=1;exitY=0.5;exitDx=0;exitDy=0;entryX=0;entryY=0.5;entryDx=0;entryDy=0;strokeWidth=1;" edge="1" parent="1" source="mvn-bpTAucvhbGxsHT3W-40" target="mvn-bpTAucvhbGxsHT3W-59">
          <mxGeometry width="50" height="50" relative="1" as="geometry">
            <mxPoint x="738.25" y="918" as="sourcePoint" />
            <mxPoint x="798.25" y="1019" as="targetPoint" />
          </mxGeometry>
        </mxCell>
        <mxCell id="mvn-bpTAucvhbGxsHT3W-66" value="" style="endArrow=classic;html=1;exitX=1;exitY=0.5;exitDx=0;exitDy=0;entryX=0;entryY=0.5;entryDx=0;entryDy=0;strokeWidth=1;" edge="1" parent="1" source="mvn-bpTAucvhbGxsHT3W-41" target="mvn-bpTAucvhbGxsHT3W-55">
          <mxGeometry width="50" height="50" relative="1" as="geometry">
            <mxPoint x="738.25" y="1060" as="sourcePoint" />
            <mxPoint x="798.25" y="1060" as="targetPoint" />
          </mxGeometry>
        </mxCell>
        <mxCell id="mvn-bpTAucvhbGxsHT3W-67" value="" style="endArrow=classic;html=1;exitX=1;exitY=0.5;exitDx=0;exitDy=0;entryX=0;entryY=0.5;entryDx=0;entryDy=0;strokeWidth=1;" edge="1" parent="1" source="mvn-bpTAucvhbGxsHT3W-57" target="mvn-bpTAucvhbGxsHT3W-61">
          <mxGeometry width="50" height="50" relative="1" as="geometry">
            <mxPoint x="723.25" y="1070" as="sourcePoint" />
            <mxPoint x="783.25" y="1070" as="targetPoint" />
          </mxGeometry>
        </mxCell>
        <mxCell id="mvn-bpTAucvhbGxsHT3W-68" value="" style="endArrow=classic;html=1;exitX=1;exitY=0.5;exitDx=0;exitDy=0;entryX=0;entryY=0.5;entryDx=0;entryDy=0;strokeWidth=1;" edge="1" parent="1" source="mvn-bpTAucvhbGxsHT3W-59" target="mvn-bpTAucvhbGxsHT3W-61">
          <mxGeometry width="50" height="50" relative="1" as="geometry">
            <mxPoint x="733.25" y="1080" as="sourcePoint" />
            <mxPoint x="793.25" y="1080" as="targetPoint" />
          </mxGeometry>
        </mxCell>
        <mxCell id="mvn-bpTAucvhbGxsHT3W-69" value="" style="endArrow=classic;html=1;exitX=1;exitY=0.5;exitDx=0;exitDy=0;entryX=0;entryY=0.5;entryDx=0;entryDy=0;strokeWidth=1;" edge="1" parent="1" source="mvn-bpTAucvhbGxsHT3W-55" target="mvn-bpTAucvhbGxsHT3W-62">
          <mxGeometry width="50" height="50" relative="1" as="geometry">
            <mxPoint x="863.25" y="1060" as="sourcePoint" />
            <mxPoint x="920.75" y="1038" as="targetPoint" />
          </mxGeometry>
        </mxCell>
        <mxCell id="mvn-bpTAucvhbGxsHT3W-70" value="" style="endArrow=classic;html=1;exitX=1;exitY=0.5;exitDx=0;exitDy=0;entryX=0;entryY=0.5;entryDx=0;entryDy=0;strokeWidth=1;" edge="1" parent="1" source="mvn-bpTAucvhbGxsHT3W-53" target="mvn-bpTAucvhbGxsHT3W-62">
          <mxGeometry width="50" height="50" relative="1" as="geometry">
            <mxPoint x="873.25" y="1070" as="sourcePoint" />
            <mxPoint x="930.75" y="1048" as="targetPoint" />
          </mxGeometry>
        </mxCell>
        <mxCell id="mvn-bpTAucvhbGxsHT3W-71" value="Hash" style="text;html=1;strokeColor=none;fillColor=none;align=center;verticalAlign=middle;whiteSpace=wrap;rounded=0;dashed=1;" vertex="1" parent="1">
          <mxGeometry x="554.75" y="878" width="60" height="20" as="geometry" />
        </mxCell>
        <mxCell id="mvn-bpTAucvhbGxsHT3W-72" value="Hash" style="text;html=1;strokeColor=none;fillColor=none;align=center;verticalAlign=middle;whiteSpace=wrap;rounded=0;dashed=1;" vertex="1" parent="1">
          <mxGeometry x="554.75" y="1019" width="60" height="20" as="geometry" />
        </mxCell>
        <mxCell id="mvn-bpTAucvhbGxsHT3W-73" value="Rebalance" style="text;html=1;strokeColor=none;fillColor=none;align=center;verticalAlign=middle;whiteSpace=wrap;rounded=0;dashed=1;" vertex="1" parent="1">
          <mxGeometry x="122.25" y="951" width="60" height="20" as="geometry" />
        </mxCell>
        <mxCell id="mvn-bpTAucvhbGxsHT3W-75" value="parallelism = 1" style="text;html=1;strokeColor=none;fillColor=none;align=center;verticalAlign=middle;whiteSpace=wrap;rounded=0;" vertex="1" parent="1">
          <mxGeometry x="25.75" y="1080" width="80" height="20" as="geometry" />
        </mxCell>
        <mxCell id="mvn-bpTAucvhbGxsHT3W-76" value="parallelism = 2" style="text;html=1;strokeColor=none;fillColor=none;align=center;verticalAlign=middle;whiteSpace=wrap;rounded=0;" vertex="1" parent="1">
          <mxGeometry x="464.25" y="1078" width="91" height="20" as="geometry" />
        </mxCell>
        <mxCell id="mvn-bpTAucvhbGxsHT3W-77" value="parallelism = 2" style="text;html=1;strokeColor=none;fillColor=none;align=center;verticalAlign=middle;whiteSpace=wrap;rounded=0;" vertex="1" parent="1">
          <mxGeometry x="888.25" y="1083" width="91" height="20" as="geometry" />
        </mxCell>
        <mxCell id="mvn-bpTAucvhbGxsHT3W-81" value="" style="rounded=1;whiteSpace=wrap;html=1;dashed=1;fillColor=#fff2cc;strokeColor=#d6b656;" vertex="1" parent="1">
          <mxGeometry x="10.25" y="458" width="110" height="250" as="geometry" />
        </mxCell>
        <mxCell id="mvn-bpTAucvhbGxsHT3W-82" value="" style="rounded=1;whiteSpace=wrap;html=1;dashed=1;fillColor=#fff2cc;strokeColor=#d6b656;" vertex="1" parent="1">
          <mxGeometry x="454.25" y="456" width="110" height="250" as="geometry" />
        </mxCell>
        <mxCell id="mvn-bpTAucvhbGxsHT3W-83" value="" style="rounded=1;whiteSpace=wrap;html=1;dashed=1;fillColor=#fff2cc;strokeColor=#d6b656;" vertex="1" parent="1">
          <mxGeometry x="878.25" y="461" width="110" height="250" as="geometry" />
        </mxCell>
        <mxCell id="mvn-bpTAucvhbGxsHT3W-86" value="" style="rounded=1;whiteSpace=wrap;html=1;fillColor=#dae8fc;strokeColor=#6c8ebf;dashed=1;" vertex="1" parent="1">
          <mxGeometry x="184.75" y="446" width="135" height="280" as="geometry" />
        </mxCell>
        <mxCell id="mvn-bpTAucvhbGxsHT3W-87" value="Source&lt;br&gt;(1/1)" style="ellipse;whiteSpace=wrap;html=1;aspect=fixed;fillColor=#ffe6cc;strokeColor=#d79b00;" vertex="1" parent="1">
          <mxGeometry x="25.25" y="549" width="80" height="80" as="geometry" />
        </mxCell>
        <mxCell id="mvn-bpTAucvhbGxsHT3W-89" value="&lt;span style=&quot;color: rgb(0 , 0 , 0)&quot;&gt;IntermediateResult&lt;br&gt;Partition&lt;br&gt;&lt;/span&gt;" style="rounded=0;whiteSpace=wrap;html=1;fillColor=#1ba1e2;strokeColor=#006EAF;fontColor=#ffffff;" vertex="1" parent="1">
          <mxGeometry x="192.75" y="574" width="120" height="30" as="geometry" />
        </mxCell>
        <mxCell id="mvn-bpTAucvhbGxsHT3W-91" value="" style="endArrow=classic;html=1;entryX=0;entryY=0.5;entryDx=0;entryDy=0;strokeWidth=1;exitX=1;exitY=0.5;exitDx=0;exitDy=0;" edge="1" parent="1" source="mvn-bpTAucvhbGxsHT3W-87" target="mvn-bpTAucvhbGxsHT3W-89">
          <mxGeometry width="50" height="50" relative="1" as="geometry">
            <mxPoint x="142.25" y="586" as="sourcePoint" />
            <mxPoint x="202.25" y="637" as="targetPoint" />
          </mxGeometry>
        </mxCell>
        <mxCell id="mvn-bpTAucvhbGxsHT3W-92" value="ExecutionEdge" style="rounded=0;whiteSpace=wrap;html=1;fillColor=#f5f5f5;strokeColor=#666666;fontColor=#333333;" vertex="1" parent="1">
          <mxGeometry x="342.25" y="502" width="90" height="30" as="geometry" />
        </mxCell>
        <mxCell id="mvn-bpTAucvhbGxsHT3W-93" value="IntermediateResult" style="text;html=1;strokeColor=none;fillColor=none;align=center;verticalAlign=middle;whiteSpace=wrap;rounded=0;dashed=1;" vertex="1" parent="1">
          <mxGeometry x="202.25" y="426" width="100" height="20" as="geometry" />
        </mxCell>
        <mxCell id="mvn-bpTAucvhbGxsHT3W-94" value="ExecutionEdge" style="rounded=0;whiteSpace=wrap;html=1;fillColor=#f5f5f5;strokeColor=#666666;fontColor=#333333;" vertex="1" parent="1">
          <mxGeometry x="342.25" y="642" width="90" height="30" as="geometry" />
        </mxCell>
        <mxCell id="mvn-bpTAucvhbGxsHT3W-97" value="ExecutionVertex" style="text;html=1;strokeColor=none;fillColor=none;align=center;verticalAlign=middle;whiteSpace=wrap;rounded=0;dashed=1;" vertex="1" parent="1">
          <mxGeometry x="18" y="525" width="95.5" height="20" as="geometry" />
        </mxCell>
        <mxCell id="mvn-bpTAucvhbGxsHT3W-98" value="Flat Map&lt;br&gt;(1/2)" style="ellipse;whiteSpace=wrap;html=1;aspect=fixed;fillColor=#ffe6cc;strokeColor=#d79b00;" vertex="1" parent="1">
          <mxGeometry x="469.25" y="476" width="80" height="80" as="geometry" />
        </mxCell>
        <mxCell id="mvn-bpTAucvhbGxsHT3W-99" value="Flat Map&lt;br&gt;(2/2)" style="ellipse;whiteSpace=wrap;html=1;aspect=fixed;fillColor=#ffe6cc;strokeColor=#d79b00;" vertex="1" parent="1">
          <mxGeometry x="469.25" y="617" width="80" height="80" as="geometry" />
        </mxCell>
        <mxCell id="mvn-bpTAucvhbGxsHT3W-100" value="" style="rounded=1;whiteSpace=wrap;html=1;fillColor=#dae8fc;strokeColor=#6c8ebf;dashed=1;" vertex="1" parent="1">
          <mxGeometry x="600.25" y="466" width="135" height="242" as="geometry" />
        </mxCell>
        <mxCell id="mvn-bpTAucvhbGxsHT3W-101" value="&lt;span style=&quot;color: rgb(0 , 0 , 0)&quot;&gt;IntermediateResult&lt;/span&gt;&lt;br style=&quot;color: rgb(0 , 0 , 0)&quot;&gt;&lt;span style=&quot;color: rgb(0 , 0 , 0)&quot;&gt;Partition&lt;/span&gt;" style="rounded=0;whiteSpace=wrap;html=1;fillColor=#1ba1e2;strokeColor=#006EAF;fontColor=#ffffff;" vertex="1" parent="1">
          <mxGeometry x="608.25" y="635.5" width="120" height="45" as="geometry" />
        </mxCell>
        <mxCell id="mvn-bpTAucvhbGxsHT3W-102" value="&lt;span style=&quot;color: rgb(0 , 0 , 0)&quot;&gt;IntermediateResult&lt;br&gt;Partition&lt;br&gt;&lt;/span&gt;" style="rounded=0;whiteSpace=wrap;html=1;fillColor=#1ba1e2;strokeColor=#006EAF;fontColor=#ffffff;" vertex="1" parent="1">
          <mxGeometry x="608.25" y="492" width="120" height="48" as="geometry" />
        </mxCell>
        <mxCell id="mvn-bpTAucvhbGxsHT3W-104" value="" style="endArrow=classic;html=1;exitX=1;exitY=0.5;exitDx=0;exitDy=0;entryX=0;entryY=0.5;entryDx=0;entryDy=0;strokeWidth=1;" edge="1" parent="1" source="mvn-bpTAucvhbGxsHT3W-98" target="mvn-bpTAucvhbGxsHT3W-102">
          <mxGeometry width="50" height="50" relative="1" as="geometry">
            <mxPoint x="579.25" y="541" as="sourcePoint" />
            <mxPoint x="639.25" y="606" as="targetPoint" />
          </mxGeometry>
        </mxCell>
        <mxCell id="mvn-bpTAucvhbGxsHT3W-109" value="" style="endArrow=classic;html=1;exitX=1;exitY=0.5;exitDx=0;exitDy=0;entryX=0;entryY=0.5;entryDx=0;entryDy=0;strokeWidth=1;" edge="1" parent="1" source="mvn-bpTAucvhbGxsHT3W-99" target="mvn-bpTAucvhbGxsHT3W-101">
          <mxGeometry width="50" height="50" relative="1" as="geometry">
            <mxPoint x="549.25" y="658" as="sourcePoint" />
            <mxPoint x="621.75" y="637" as="targetPoint" />
          </mxGeometry>
        </mxCell>
        <mxCell id="mvn-bpTAucvhbGxsHT3W-110" value="" style="endArrow=classic;html=1;exitX=1;exitY=0.5;exitDx=0;exitDy=0;entryX=0;entryY=0.5;entryDx=0;entryDy=0;strokeWidth=1;" edge="1" parent="1" source="mvn-bpTAucvhbGxsHT3W-89" target="mvn-bpTAucvhbGxsHT3W-92">
          <mxGeometry width="50" height="50" relative="1" as="geometry">
            <mxPoint x="132.25" y="582" as="sourcePoint" />
            <mxPoint x="182.25" y="527" as="targetPoint" />
          </mxGeometry>
        </mxCell>
        <mxCell id="mvn-bpTAucvhbGxsHT3W-111" value="" style="endArrow=classic;html=1;entryX=0;entryY=0.5;entryDx=0;entryDy=0;strokeWidth=1;" edge="1" parent="1" target="mvn-bpTAucvhbGxsHT3W-98">
          <mxGeometry width="50" height="50" relative="1" as="geometry">
            <mxPoint x="426.25" y="516" as="sourcePoint" />
            <mxPoint x="346.25" y="527" as="targetPoint" />
          </mxGeometry>
        </mxCell>
        <mxCell id="mvn-bpTAucvhbGxsHT3W-112" value="" style="endArrow=classic;html=1;exitX=1;exitY=0.5;exitDx=0;exitDy=0;entryX=0;entryY=0.5;entryDx=0;entryDy=0;strokeWidth=1;" edge="1" parent="1" source="mvn-bpTAucvhbGxsHT3W-89" target="mvn-bpTAucvhbGxsHT3W-94">
          <mxGeometry width="50" height="50" relative="1" as="geometry">
            <mxPoint x="312.25" y="657" as="sourcePoint" />
            <mxPoint x="372.25" y="557" as="targetPoint" />
          </mxGeometry>
        </mxCell>
        <mxCell id="mvn-bpTAucvhbGxsHT3W-113" value="" style="endArrow=classic;html=1;strokeWidth=1;exitX=1;exitY=0.5;exitDx=0;exitDy=0;entryX=0;entryY=0.5;entryDx=0;entryDy=0;" edge="1" parent="1" target="mvn-bpTAucvhbGxsHT3W-99">
          <mxGeometry width="50" height="50" relative="1" as="geometry">
            <mxPoint x="426.25" y="657" as="sourcePoint" />
            <mxPoint x="486.25" y="657" as="targetPoint" />
          </mxGeometry>
        </mxCell>
        <mxCell id="mvn-bpTAucvhbGxsHT3W-114" value="ExecutionVetex" style="text;html=1;strokeColor=none;fillColor=none;align=center;verticalAlign=middle;whiteSpace=wrap;rounded=0;dashed=1;" vertex="1" parent="1">
          <mxGeometry x="469.75" y="456" width="86.5" height="20" as="geometry" />
        </mxCell>
        <mxCell id="mvn-bpTAucvhbGxsHT3W-116" value="IntermediateResult" style="text;html=1;strokeColor=none;fillColor=none;align=center;verticalAlign=middle;whiteSpace=wrap;rounded=0;dashed=1;" vertex="1" parent="1">
          <mxGeometry x="617.75" y="446" width="100" height="20" as="geometry" />
        </mxCell>
        <mxCell id="mvn-bpTAucvhbGxsHT3W-119" value="ExecutionEdge" style="rounded=0;whiteSpace=wrap;html=1;fillColor=#f5f5f5;strokeColor=#666666;fontColor=#333333;" vertex="1" parent="1">
          <mxGeometry x="762.75" y="480" width="90" height="30" as="geometry" />
        </mxCell>
        <mxCell id="mvn-bpTAucvhbGxsHT3W-121" value="ExecutionEdge" style="rounded=0;whiteSpace=wrap;html=1;fillColor=#f5f5f5;strokeColor=#666666;fontColor=#333333;" vertex="1" parent="1">
          <mxGeometry x="763.25" y="540" width="90" height="30" as="geometry" />
        </mxCell>
        <mxCell id="mvn-bpTAucvhbGxsHT3W-123" value="ExecutionEdge" style="rounded=0;whiteSpace=wrap;html=1;fillColor=#f5f5f5;strokeColor=#666666;fontColor=#333333;" vertex="1" parent="1">
          <mxGeometry x="763.25" y="599" width="90" height="30" as="geometry" />
        </mxCell>
        <mxCell id="mvn-bpTAucvhbGxsHT3W-125" value="ExecutionEdge" style="rounded=0;whiteSpace=wrap;html=1;fillColor=#f5f5f5;strokeColor=#666666;fontColor=#333333;" vertex="1" parent="1">
          <mxGeometry x="762.75" y="663" width="90" height="30" as="geometry" />
        </mxCell>
        <mxCell id="mvn-bpTAucvhbGxsHT3W-126" value="&lt;font style=&quot;font-size: 11px&quot;&gt;Keyed&lt;br&gt;Aggregation&lt;br&gt;&amp;gt;&amp;gt;&amp;gt;&lt;br&gt;Sink&lt;br&gt;(2/2)&lt;/font&gt;" style="ellipse;whiteSpace=wrap;html=1;aspect=fixed;fillColor=#ffe6cc;strokeColor=#d79b00;" vertex="1" parent="1">
          <mxGeometry x="893.25" y="607" width="80" height="80" as="geometry" />
        </mxCell>
        <mxCell id="mvn-bpTAucvhbGxsHT3W-127" value="&lt;font style=&quot;font-size: 11px&quot;&gt;Keyed&lt;br&gt;Aggregation&lt;br&gt;&amp;gt;&amp;gt;&amp;gt;&lt;br&gt;Sink&lt;br&gt;(1/2)&lt;/font&gt;" style="ellipse;whiteSpace=wrap;html=1;aspect=fixed;fillColor=#ffe6cc;strokeColor=#d79b00;" vertex="1" parent="1">
          <mxGeometry x="893.25" y="484" width="80" height="80" as="geometry" />
        </mxCell>
        <mxCell id="mvn-bpTAucvhbGxsHT3W-128" value="" style="endArrow=classic;html=1;exitX=1;exitY=0.5;exitDx=0;exitDy=0;entryX=0;entryY=0.5;entryDx=0;entryDy=0;strokeWidth=1;" edge="1" parent="1" source="mvn-bpTAucvhbGxsHT3W-102" target="mvn-bpTAucvhbGxsHT3W-119">
          <mxGeometry width="50" height="50" relative="1" as="geometry">
            <mxPoint x="545.2499999999968" y="526" as="sourcePoint" />
            <mxPoint x="617.75" y="505" as="targetPoint" />
          </mxGeometry>
        </mxCell>
        <mxCell id="mvn-bpTAucvhbGxsHT3W-129" value="" style="endArrow=classic;html=1;exitX=1;exitY=0.5;exitDx=0;exitDy=0;entryX=0;entryY=0.5;entryDx=0;entryDy=0;strokeWidth=1;" edge="1" parent="1" source="mvn-bpTAucvhbGxsHT3W-101" target="mvn-bpTAucvhbGxsHT3W-121">
          <mxGeometry width="50" height="50" relative="1" as="geometry">
            <mxPoint x="737.75" y="505" as="sourcePoint" />
            <mxPoint x="797.75" y="505" as="targetPoint" />
          </mxGeometry>
        </mxCell>
        <mxCell id="mvn-bpTAucvhbGxsHT3W-130" value="" style="endArrow=classic;html=1;entryX=0;entryY=0.5;entryDx=0;entryDy=0;strokeWidth=1;exitX=1;exitY=0.5;exitDx=0;exitDy=0;" edge="1" parent="1" source="mvn-bpTAucvhbGxsHT3W-101" target="mvn-bpTAucvhbGxsHT3W-125">
          <mxGeometry width="50" height="50" relative="1" as="geometry">
            <mxPoint x="727.75" y="658" as="sourcePoint" />
            <mxPoint x="797.75" y="647" as="targetPoint" />
          </mxGeometry>
        </mxCell>
        <mxCell id="mvn-bpTAucvhbGxsHT3W-131" value="" style="endArrow=classic;html=1;exitX=1;exitY=0.5;exitDx=0;exitDy=0;entryX=0;entryY=0.5;entryDx=0;entryDy=0;strokeWidth=1;" edge="1" parent="1" source="mvn-bpTAucvhbGxsHT3W-102" target="mvn-bpTAucvhbGxsHT3W-123">
          <mxGeometry width="50" height="50" relative="1" as="geometry">
            <mxPoint x="727.75" y="637" as="sourcePoint" />
            <mxPoint x="797.75" y="688" as="targetPoint" />
          </mxGeometry>
        </mxCell>
        <mxCell id="mvn-bpTAucvhbGxsHT3W-132" value="" style="endArrow=classic;html=1;exitX=1;exitY=0.5;exitDx=0;exitDy=0;entryX=0;entryY=0.5;entryDx=0;entryDy=0;strokeWidth=1;" edge="1" parent="1" source="mvn-bpTAucvhbGxsHT3W-123" target="mvn-bpTAucvhbGxsHT3W-126">
          <mxGeometry width="50" height="50" relative="1" as="geometry">
            <mxPoint x="722.75" y="698" as="sourcePoint" />
            <mxPoint x="782.75" y="698" as="targetPoint" />
          </mxGeometry>
        </mxCell>
        <mxCell id="mvn-bpTAucvhbGxsHT3W-133" value="" style="endArrow=classic;html=1;exitX=1;exitY=0.5;exitDx=0;exitDy=0;entryX=0;entryY=0.5;entryDx=0;entryDy=0;strokeWidth=1;" edge="1" parent="1" source="mvn-bpTAucvhbGxsHT3W-125" target="mvn-bpTAucvhbGxsHT3W-126">
          <mxGeometry width="50" height="50" relative="1" as="geometry">
            <mxPoint x="732.75" y="708" as="sourcePoint" />
            <mxPoint x="792.75" y="708" as="targetPoint" />
          </mxGeometry>
        </mxCell>
        <mxCell id="mvn-bpTAucvhbGxsHT3W-134" value="" style="endArrow=classic;html=1;exitX=1;exitY=0.5;exitDx=0;exitDy=0;entryX=0;entryY=0.5;entryDx=0;entryDy=0;strokeWidth=1;" edge="1" parent="1" source="mvn-bpTAucvhbGxsHT3W-121" target="mvn-bpTAucvhbGxsHT3W-127">
          <mxGeometry width="50" height="50" relative="1" as="geometry">
            <mxPoint x="862.75" y="688" as="sourcePoint" />
            <mxPoint x="920.25" y="666" as="targetPoint" />
          </mxGeometry>
        </mxCell>
        <mxCell id="mvn-bpTAucvhbGxsHT3W-135" value="" style="endArrow=classic;html=1;exitX=1;exitY=0.5;exitDx=0;exitDy=0;entryX=0;entryY=0.5;entryDx=0;entryDy=0;strokeWidth=1;" edge="1" parent="1" source="mvn-bpTAucvhbGxsHT3W-119" target="mvn-bpTAucvhbGxsHT3W-127">
          <mxGeometry width="50" height="50" relative="1" as="geometry">
            <mxPoint x="872.75" y="698" as="sourcePoint" />
            <mxPoint x="930.25" y="676" as="targetPoint" />
          </mxGeometry>
        </mxCell>
        <mxCell id="mvn-bpTAucvhbGxsHT3W-139" value="parallelism = 1" style="text;html=1;strokeColor=none;fillColor=none;align=center;verticalAlign=middle;whiteSpace=wrap;rounded=0;" vertex="1" parent="1">
          <mxGeometry x="25.25" y="708" width="80" height="20" as="geometry" />
        </mxCell>
        <mxCell id="mvn-bpTAucvhbGxsHT3W-140" value="parallelism = 2" style="text;html=1;strokeColor=none;fillColor=none;align=center;verticalAlign=middle;whiteSpace=wrap;rounded=0;" vertex="1" parent="1">
          <mxGeometry x="463.75" y="706" width="91" height="20" as="geometry" />
        </mxCell>
        <mxCell id="mvn-bpTAucvhbGxsHT3W-141" value="parallelism = 2" style="text;html=1;strokeColor=none;fillColor=none;align=center;verticalAlign=middle;whiteSpace=wrap;rounded=0;" vertex="1" parent="1">
          <mxGeometry x="887.75" y="711" width="91" height="20" as="geometry" />
        </mxCell>
        <mxCell id="mvn-bpTAucvhbGxsHT3W-142" value="ExecutionJobVertex" style="text;html=1;strokeColor=none;fillColor=none;align=center;verticalAlign=middle;whiteSpace=wrap;rounded=0;dashed=1;" vertex="1" parent="1">
          <mxGeometry x="10" y="436" width="113.25" height="20" as="geometry" />
        </mxCell>
        <mxCell id="mvn-bpTAucvhbGxsHT3W-143" value="ExecutionVetex" style="text;html=1;strokeColor=none;fillColor=none;align=center;verticalAlign=middle;whiteSpace=wrap;rounded=0;dashed=1;" vertex="1" parent="1">
          <mxGeometry x="468.25" y="597" width="86.5" height="20" as="geometry" />
        </mxCell>
        <mxCell id="mvn-bpTAucvhbGxsHT3W-144" value="ExecutionJobVetex" style="text;html=1;strokeColor=none;fillColor=none;align=center;verticalAlign=middle;whiteSpace=wrap;rounded=0;dashed=1;" vertex="1" parent="1">
          <mxGeometry x="454.25" y="436" width="107.5" height="20" as="geometry" />
        </mxCell>
        <mxCell id="mvn-bpTAucvhbGxsHT3W-145" value="ExecutionJobVertex" style="text;html=1;strokeColor=none;fillColor=none;align=center;verticalAlign=middle;whiteSpace=wrap;rounded=0;dashed=1;" vertex="1" parent="1">
          <mxGeometry x="883.25" y="441" width="100" height="20" as="geometry" />
        </mxCell>
        <mxCell id="mvn-bpTAucvhbGxsHT3W-147" value="ExecutionVetex" style="text;html=1;strokeColor=none;fillColor=none;align=center;verticalAlign=middle;whiteSpace=wrap;rounded=0;dashed=1;" vertex="1" parent="1">
          <mxGeometry x="892.25" y="466" width="86.5" height="20" as="geometry" />
        </mxCell>
        <mxCell id="mvn-bpTAucvhbGxsHT3W-148" value="ExecutionVetex" style="text;html=1;strokeColor=none;fillColor=none;align=center;verticalAlign=middle;whiteSpace=wrap;rounded=0;dashed=1;" vertex="1" parent="1">
          <mxGeometry x="890" y="587" width="86.5" height="20" as="geometry" />
        </mxCell>
        <mxCell id="mvn-bpTAucvhbGxsHT3W-149" value="&lt;font style=&quot;font-size: 18px&quot;&gt;PhysicaExecutionGraph&lt;/font&gt;" style="text;html=1;strokeColor=none;fillColor=none;align=center;verticalAlign=middle;whiteSpace=wrap;rounded=0;dashed=1;" vertex="1" parent="1">
          <mxGeometry x="402.75" y="768" width="250" height="50" as="geometry" />
        </mxCell>
        <mxCell id="mvn-bpTAucvhbGxsHT3W-150" value="&lt;font style=&quot;font-size: 18px&quot;&gt;ExecutionGraph&lt;/font&gt;" style="text;html=1;strokeColor=none;fillColor=none;align=center;verticalAlign=middle;whiteSpace=wrap;rounded=0;dashed=1;" vertex="1" parent="1">
          <mxGeometry x="400" y="386" width="250" height="50" as="geometry" />
        </mxCell>
        <mxCell id="mvn-bpTAucvhbGxsHT3W-151" value="Source" style="ellipse;whiteSpace=wrap;html=1;aspect=fixed;fillColor=#ffe6cc;strokeColor=#d79b00;" vertex="1" parent="1">
          <mxGeometry x="26" y="78" width="80" height="80" as="geometry" />
        </mxCell>
        <mxCell id="mvn-bpTAucvhbGxsHT3W-152" value="StreamNode" style="text;html=1;strokeColor=none;fillColor=none;align=center;verticalAlign=middle;whiteSpace=wrap;rounded=0;" vertex="1" parent="1">
          <mxGeometry x="26" y="58" width="80" height="20" as="geometry" />
        </mxCell>
        <mxCell id="mvn-bpTAucvhbGxsHT3W-153" value="parallelism = 1" style="text;html=1;strokeColor=none;fillColor=none;align=center;verticalAlign=middle;whiteSpace=wrap;rounded=0;" vertex="1" parent="1">
          <mxGeometry x="26" y="158" width="80" height="20" as="geometry" />
        </mxCell>
        <mxCell id="mvn-bpTAucvhbGxsHT3W-154" value="StreamEdge" style="rounded=0;whiteSpace=wrap;html=1;fillColor=#f5f5f5;strokeColor=#666666;fontColor=#333333;" vertex="1" parent="1">
          <mxGeometry x="342.75" y="103" width="90" height="30" as="geometry" />
        </mxCell>
        <mxCell id="mvn-bpTAucvhbGxsHT3W-155" value="Flat Map" style="ellipse;whiteSpace=wrap;html=1;aspect=fixed;fillColor=#ffe6cc;strokeColor=#d79b00;" vertex="1" parent="1">
          <mxGeometry x="469.25" y="78" width="80" height="80" as="geometry" />
        </mxCell>
        <mxCell id="mvn-bpTAucvhbGxsHT3W-156" value="Keyed&lt;br&gt;Aggregation" style="ellipse;whiteSpace=wrap;html=1;aspect=fixed;fillColor=#ffe6cc;strokeColor=#d79b00;" vertex="1" parent="1">
          <mxGeometry x="893.25" y="78" width="80" height="80" as="geometry" />
        </mxCell>
        <mxCell id="mvn-bpTAucvhbGxsHT3W-157" value="StreamEdge" style="rounded=0;whiteSpace=wrap;html=1;fillColor=#f5f5f5;strokeColor=#666666;fontColor=#333333;" vertex="1" parent="1">
          <mxGeometry x="763.25" y="103" width="90" height="30" as="geometry" />
        </mxCell>
        <mxCell id="mvn-bpTAucvhbGxsHT3W-158" value="StreamEdge" style="rounded=0;whiteSpace=wrap;html=1;fillColor=#f5f5f5;strokeColor=#666666;fontColor=#333333;" vertex="1" parent="1">
          <mxGeometry x="988.75" y="103" width="90" height="30" as="geometry" />
        </mxCell>
        <mxCell id="mvn-bpTAucvhbGxsHT3W-159" value="Sink" style="ellipse;whiteSpace=wrap;html=1;aspect=fixed;fillColor=#ffe6cc;strokeColor=#d79b00;" vertex="1" parent="1">
          <mxGeometry x="1102" y="78" width="80" height="80" as="geometry" />
        </mxCell>
        <mxCell id="mvn-bpTAucvhbGxsHT3W-161" value="&lt;span style=&quot;color: rgb(0 , 0 , 0)&quot;&gt;IntermediateDataSet&lt;br&gt;&lt;/span&gt;" style="rounded=0;whiteSpace=wrap;html=1;fillColor=#dae8fc;strokeColor=#6c8ebf;" vertex="1" parent="1">
          <mxGeometry x="594.25" y="274" width="141" height="48" as="geometry" />
        </mxCell>
        <mxCell id="mvn-bpTAucvhbGxsHT3W-162" value="&lt;span style=&quot;color: rgb(0 , 0 , 0)&quot;&gt;IntermediateDataSet&lt;br&gt;&lt;/span&gt;" style="rounded=0;whiteSpace=wrap;html=1;fillColor=#dae8fc;strokeColor=#6c8ebf;" vertex="1" parent="1">
          <mxGeometry x="178.75" y="274" width="141" height="48" as="geometry" />
        </mxCell>
        <mxCell id="mvn-bpTAucvhbGxsHT3W-164" value="JobVertex" style="text;html=1;strokeColor=none;fillColor=none;align=center;verticalAlign=middle;whiteSpace=wrap;rounded=0;" vertex="1" parent="1">
          <mxGeometry x="468" y="238" width="80" height="20" as="geometry" />
        </mxCell>
        <mxCell id="mvn-bpTAucvhbGxsHT3W-165" value="JobVertex" style="text;html=1;strokeColor=none;fillColor=none;align=center;verticalAlign=middle;whiteSpace=wrap;rounded=0;" vertex="1" parent="1">
          <mxGeometry x="892.25" y="238" width="80" height="20" as="geometry" />
        </mxCell>
        <mxCell id="mvn-bpTAucvhbGxsHT3W-169" value="&lt;font style=&quot;font-size: 18px&quot;&gt;JobGraph&lt;/font&gt;" style="text;html=1;strokeColor=none;fillColor=none;align=center;verticalAlign=middle;whiteSpace=wrap;rounded=0;dashed=1;" vertex="1" parent="1">
          <mxGeometry x="383" y="200" width="250" height="50" as="geometry" />
        </mxCell>
        <mxCell id="mvn-bpTAucvhbGxsHT3W-170" value="&lt;font style=&quot;font-size: 18px&quot;&gt;StreamGraph&lt;/font&gt;" style="text;html=1;strokeColor=none;fillColor=none;align=center;verticalAlign=middle;whiteSpace=wrap;rounded=0;dashed=1;" vertex="1" parent="1">
          <mxGeometry x="391.25" y="20" width="250" height="50" as="geometry" />
        </mxCell>
        <mxCell id="mvn-bpTAucvhbGxsHT3W-171" value="parallelism = 2" style="text;html=1;strokeColor=none;fillColor=none;align=center;verticalAlign=middle;whiteSpace=wrap;rounded=0;" vertex="1" parent="1">
          <mxGeometry x="475.25" y="338" width="80" height="20" as="geometry" />
        </mxCell>
        <mxCell id="mvn-bpTAucvhbGxsHT3W-172" value="parallelism = 2" style="text;html=1;strokeColor=none;fillColor=none;align=center;verticalAlign=middle;whiteSpace=wrap;rounded=0;" vertex="1" parent="1">
          <mxGeometry x="895.5" y="338" width="80" height="20" as="geometry" />
        </mxCell>
        <mxCell id="mvn-bpTAucvhbGxsHT3W-173" value="parallelism = 2" style="text;html=1;strokeColor=none;fillColor=none;align=center;verticalAlign=middle;whiteSpace=wrap;rounded=0;" vertex="1" parent="1">
          <mxGeometry x="476.25" y="158" width="80" height="20" as="geometry" />
        </mxCell>
        <mxCell id="mvn-bpTAucvhbGxsHT3W-174" value="parallelism = 2" style="text;html=1;strokeColor=none;fillColor=none;align=center;verticalAlign=middle;whiteSpace=wrap;rounded=0;" vertex="1" parent="1">
          <mxGeometry x="899.25" y="158" width="80" height="20" as="geometry" />
        </mxCell>
        <mxCell id="mvn-bpTAucvhbGxsHT3W-175" value="parallelism = 2" style="text;html=1;strokeColor=none;fillColor=none;align=center;verticalAlign=middle;whiteSpace=wrap;rounded=0;" vertex="1" parent="1">
          <mxGeometry x="1110" y="158" width="80" height="20" as="geometry" />
        </mxCell>
        <mxCell id="mvn-bpTAucvhbGxsHT3W-176" value="" style="endArrow=classic;html=1;entryX=0;entryY=0.5;entryDx=0;entryDy=0;strokeWidth=1;exitX=1;exitY=0.5;exitDx=0;exitDy=0;" edge="1" parent="1" source="mvn-bpTAucvhbGxsHT3W-2" target="mvn-bpTAucvhbGxsHT3W-162">
          <mxGeometry width="50" height="50" relative="1" as="geometry">
            <mxPoint x="115.25" y="599" as="sourcePoint" />
            <mxPoint x="202.75" y="599" as="targetPoint" />
          </mxGeometry>
        </mxCell>
        <mxCell id="mvn-bpTAucvhbGxsHT3W-178" value="" style="endArrow=classic;html=1;strokeWidth=1;entryX=0;entryY=0.5;entryDx=0;entryDy=0;exitX=1;exitY=0.5;exitDx=0;exitDy=0;" edge="1" parent="1" source="mvn-bpTAucvhbGxsHT3W-162" target="mvn-bpTAucvhbGxsHT3W-5">
          <mxGeometry width="50" height="50" relative="1" as="geometry">
            <mxPoint x="320" y="290" as="sourcePoint" />
            <mxPoint x="350" y="300" as="targetPoint" />
          </mxGeometry>
        </mxCell>
        <mxCell id="mvn-bpTAucvhbGxsHT3W-179" value="" style="endArrow=classic;html=1;strokeWidth=1;exitX=1;exitY=0.5;exitDx=0;exitDy=0;entryX=0;entryY=0.5;entryDx=0;entryDy=0;" edge="1" parent="1" source="mvn-bpTAucvhbGxsHT3W-5" target="mvn-bpTAucvhbGxsHT3W-6">
          <mxGeometry width="50" height="50" relative="1" as="geometry">
            <mxPoint x="121.75" y="318" as="sourcePoint" />
            <mxPoint x="198.75" y="318" as="targetPoint" />
          </mxGeometry>
        </mxCell>
        <mxCell id="mvn-bpTAucvhbGxsHT3W-180" value="" style="endArrow=classic;html=1;entryX=0;entryY=0.5;entryDx=0;entryDy=0;strokeWidth=1;exitX=1;exitY=0.5;exitDx=0;exitDy=0;" edge="1" parent="1" source="mvn-bpTAucvhbGxsHT3W-6" target="mvn-bpTAucvhbGxsHT3W-161">
          <mxGeometry width="50" height="50" relative="1" as="geometry">
            <mxPoint x="131.75" y="328" as="sourcePoint" />
            <mxPoint x="208.75" y="328" as="targetPoint" />
          </mxGeometry>
        </mxCell>
        <mxCell id="mvn-bpTAucvhbGxsHT3W-181" value="" style="endArrow=classic;html=1;entryX=0;entryY=0.5;entryDx=0;entryDy=0;strokeWidth=1;exitX=1;exitY=0.5;exitDx=0;exitDy=0;" edge="1" parent="1" source="mvn-bpTAucvhbGxsHT3W-161" target="mvn-bpTAucvhbGxsHT3W-8">
          <mxGeometry width="50" height="50" relative="1" as="geometry">
            <mxPoint x="559.25" y="308" as="sourcePoint" />
            <mxPoint x="604.25" y="308" as="targetPoint" />
          </mxGeometry>
        </mxCell>
        <mxCell id="mvn-bpTAucvhbGxsHT3W-182" value="" style="endArrow=classic;html=1;entryX=0;entryY=0.5;entryDx=0;entryDy=0;strokeWidth=1;exitX=1;exitY=0.5;exitDx=0;exitDy=0;" edge="1" parent="1" source="mvn-bpTAucvhbGxsHT3W-8" target="mvn-bpTAucvhbGxsHT3W-7">
          <mxGeometry width="50" height="50" relative="1" as="geometry">
            <mxPoint x="569.25" y="318" as="sourcePoint" />
            <mxPoint x="614.25" y="318" as="targetPoint" />
          </mxGeometry>
        </mxCell>
        <mxCell id="mvn-bpTAucvhbGxsHT3W-183" value="" style="endArrow=classic;html=1;entryX=0;entryY=0.5;entryDx=0;entryDy=0;strokeWidth=1;exitX=1;exitY=0.5;exitDx=0;exitDy=0;" edge="1" parent="1" source="mvn-bpTAucvhbGxsHT3W-151" target="mvn-bpTAucvhbGxsHT3W-154">
          <mxGeometry width="50" height="50" relative="1" as="geometry">
            <mxPoint x="111.75" y="308.0000000000002" as="sourcePoint" />
            <mxPoint x="188.75" y="308.0000000000002" as="targetPoint" />
          </mxGeometry>
        </mxCell>
        <mxCell id="mvn-bpTAucvhbGxsHT3W-184" value="" style="endArrow=classic;html=1;entryX=0;entryY=0.5;entryDx=0;entryDy=0;strokeWidth=1;exitX=1;exitY=0.5;exitDx=0;exitDy=0;" edge="1" parent="1" source="mvn-bpTAucvhbGxsHT3W-154" target="mvn-bpTAucvhbGxsHT3W-155">
          <mxGeometry width="50" height="50" relative="1" as="geometry">
            <mxPoint x="121.75" y="318.0000000000002" as="sourcePoint" />
            <mxPoint x="198.75" y="318.0000000000002" as="targetPoint" />
          </mxGeometry>
        </mxCell>
        <mxCell id="mvn-bpTAucvhbGxsHT3W-185" value="" style="endArrow=classic;html=1;entryX=0;entryY=0.5;entryDx=0;entryDy=0;strokeWidth=1;exitX=1;exitY=0.5;exitDx=0;exitDy=0;" edge="1" parent="1" source="mvn-bpTAucvhbGxsHT3W-155" target="mvn-bpTAucvhbGxsHT3W-157">
          <mxGeometry width="50" height="50" relative="1" as="geometry">
            <mxPoint x="442.75" y="128" as="sourcePoint" />
            <mxPoint x="479.25" y="128" as="targetPoint" />
          </mxGeometry>
        </mxCell>
        <mxCell id="mvn-bpTAucvhbGxsHT3W-186" value="" style="endArrow=classic;html=1;entryX=0;entryY=0.5;entryDx=0;entryDy=0;strokeWidth=1;exitX=1;exitY=0.5;exitDx=0;exitDy=0;" edge="1" parent="1" source="mvn-bpTAucvhbGxsHT3W-157" target="mvn-bpTAucvhbGxsHT3W-156">
          <mxGeometry width="50" height="50" relative="1" as="geometry">
            <mxPoint x="559.25" y="127.99999999999989" as="sourcePoint" />
            <mxPoint x="773.25" y="127.99999999999989" as="targetPoint" />
          </mxGeometry>
        </mxCell>
        <mxCell id="mvn-bpTAucvhbGxsHT3W-187" value="" style="endArrow=classic;html=1;entryX=0;entryY=0.5;entryDx=0;entryDy=0;strokeWidth=1;exitX=1;exitY=0.5;exitDx=0;exitDy=0;" edge="1" parent="1" source="mvn-bpTAucvhbGxsHT3W-156" target="mvn-bpTAucvhbGxsHT3W-158">
          <mxGeometry width="50" height="50" relative="1" as="geometry">
            <mxPoint x="863.25" y="127.99999999999989" as="sourcePoint" />
            <mxPoint x="903.2499999999934" y="127.99999999999989" as="targetPoint" />
          </mxGeometry>
        </mxCell>
        <mxCell id="mvn-bpTAucvhbGxsHT3W-188" value="" style="endArrow=classic;html=1;entryX=0;entryY=0.5;entryDx=0;entryDy=0;strokeWidth=1;exitX=1;exitY=0.5;exitDx=0;exitDy=0;" edge="1" parent="1" source="mvn-bpTAucvhbGxsHT3W-158" target="mvn-bpTAucvhbGxsHT3W-159">
          <mxGeometry width="50" height="50" relative="1" as="geometry">
            <mxPoint x="983.2500000000064" y="127.99999999999989" as="sourcePoint" />
            <mxPoint x="998.7499999999998" y="127.99999999999989" as="targetPoint" />
          </mxGeometry>
        </mxCell>
        <mxCell id="mvn-bpTAucvhbGxsHT3W-189" value="StreamNode" style="text;html=1;strokeColor=none;fillColor=none;align=center;verticalAlign=middle;whiteSpace=wrap;rounded=0;" vertex="1" parent="1">
          <mxGeometry x="469.25" y="58" width="80" height="20" as="geometry" />
        </mxCell>
        <mxCell id="mvn-bpTAucvhbGxsHT3W-190" value="StreamNode" style="text;html=1;strokeColor=none;fillColor=none;align=center;verticalAlign=middle;whiteSpace=wrap;rounded=0;" vertex="1" parent="1">
          <mxGeometry x="892.25" y="58" width="80" height="20" as="geometry" />
        </mxCell>
        <mxCell id="mvn-bpTAucvhbGxsHT3W-191" value="StreamNode" style="text;html=1;strokeColor=none;fillColor=none;align=center;verticalAlign=middle;whiteSpace=wrap;rounded=0;" vertex="1" parent="1">
          <mxGeometry x="1102" y="58" width="80" height="20" as="geometry" />
        </mxCell>
        <mxCell id="mvn-bpTAucvhbGxsHT3W-192" value="Forward" style="text;html=1;strokeColor=none;fillColor=none;align=center;verticalAlign=middle;whiteSpace=wrap;rounded=0;" vertex="1" parent="1">
          <mxGeometry x="993.75" y="83" width="80" height="20" as="geometry" />
        </mxCell>
        <mxCell id="mvn-bpTAucvhbGxsHT3W-193" value="Hash" style="text;html=1;strokeColor=none;fillColor=none;align=center;verticalAlign=middle;whiteSpace=wrap;rounded=0;" vertex="1" parent="1">
          <mxGeometry x="767.75" y="83" width="80" height="20" as="geometry" />
        </mxCell>
        <mxCell id="mvn-bpTAucvhbGxsHT3W-194" value="Rebalance" style="text;html=1;strokeColor=none;fillColor=none;align=center;verticalAlign=middle;whiteSpace=wrap;rounded=0;" vertex="1" parent="1">
          <mxGeometry x="347.25" y="83" width="80" height="20" as="geometry" />
        </mxCell>
        <mxCell id="mvn-bpTAucvhbGxsHT3W-195" value="" style="shape=curlyBracket;whiteSpace=wrap;html=1;rounded=1;fillColor=#CCCCCC;rotation=-90;" vertex="1" parent="1">
          <mxGeometry x="1031.25" y="66.5" width="20" height="242" as="geometry" />
        </mxCell>
        <mxCell id="mvn-bpTAucvhbGxsHT3W-196" value="" style="edgeStyle=orthogonalEdgeStyle;elbow=vertical;endArrow=classic;html=1;strokeWidth=1;entryX=1;entryY=0.5;entryDx=0;entryDy=0;exitX=0.1;exitY=0.5;exitDx=0;exitDy=0;exitPerimeter=0;dashed=1;" edge="1" parent="1" source="mvn-bpTAucvhbGxsHT3W-195" target="mvn-bpTAucvhbGxsHT3W-7">
          <mxGeometry width="50" height="50" relative="1" as="geometry">
            <mxPoint x="1050" y="200" as="sourcePoint" />
            <mxPoint x="1020" y="310" as="targetPoint" />
          </mxGeometry>
        </mxCell>
        <mxCell id="mvn-bpTAucvhbGxsHT3W-197" value="Operator Chain" style="text;html=1;strokeColor=none;fillColor=none;align=center;verticalAlign=middle;whiteSpace=wrap;rounded=0;" vertex="1" parent="1">
          <mxGeometry x="1040" y="215" width="100" height="20" as="geometry" />
        </mxCell>
      </root>
    </mxGraphModel>
  </diagram>
</mxfile>
